<?xml version="1.0" encoding="utf-8"?>
<svg viewBox="165.576 -164.787 500 500" xmlns="http://www.w3.org/2000/svg">
  <defs>
    <g/>
    <clipPath id="d451f1d61e">
      <path d="M 346 266 L 583 266 L 583 500.089844 L 346 500.089844 Z M 346 266 " clip-rule="nonzero"/>
    </clipPath>
    <clipPath id="a09074538a">
      <path d="M 227 301 L 444 301 L 444 500.089844 L 227 500.089844 Z M 227 301 " clip-rule="nonzero"/>
    </clipPath>
  </defs>
  <path fill="#2accc8" d="M 439.035 12.209 L 457.742 12.209 L 457.742 -3.436 L 511.695 27.74 L 468.629 -74.303 C 465.609 -82.553 462.375 -91.127 458.246 -98.901 C 450.871 -112.799 440.625 -124.143 423.531 -126.459 C 390.922 -130.877 377.566 -93.034 367.293 -69.123 C 357.484 -46.295 347.672 -23.463 337.863 -0.639 C 336.024 3.646 334.184 7.923 332.344 12.209 L 322.391 35.381 C 340.242 27.545 358.309 22.24 375.176 18.685 C 396.164 14.263 417.582 12.209 439.035 12.209" fill-opacity="1" fill-rule="nonzero"/>
  <g clip-path="url(#d451f1d61e)" transform="matrix(1, 0, 0, 1, 13.797037, -225.959)">
    <path d="M 579.199219 442.894531 L 527.964844 323.660156 C 527.84375 323.378906 527.726562 323.101562 527.601562 322.824219 C 523.410156 313.074219 519.21875 303.316406 515.027344 293.566406 L 529.445312 266.601562 L 443.945312 316.917969 L 443.945312 301.273438 C 379.796875 301.273438 346.628906 380.269531 346.628906 380.269531 L 463.144531 380.269531 L 503.96875 475.269531 C 510.632812 490.78125 525.734375 500.066406 541.601562 500.066406 C 546.996094 500.066406 552.484375 498.992188 557.757812 496.722656 C 578.53125 487.78125 588.132812 463.679688 579.199219 442.894531 " fill-opacity="1" fill-rule="nonzero" style="fill: rgb(255, 69, 0);"/>
  </g>
  <g clip-path="url(#a09074538a)" transform="matrix(1, 0, 0, 1, 13.797037, -225.959)">
    <path fill="#ffd804" d="M 443.945312 301.273438 L 411.464844 301.273438 C 338.632812 301.273438 272.789062 344.664062 244.015625 411.628906 L 237.484375 426.8125 C 237.03125 427.871094 236.597656 428.882812 236.179688 429.859375 L 235.414062 431.640625 C 235.34375 431.800781 235.273438 431.960938 235.207031 432.121094 L 235.121094 432.316406 C 232.285156 438.917969 230.578125 442.894531 230.578125 442.894531 C 221.644531 463.679688 231.242188 487.78125 252.015625 496.722656 C 257.292969 498.992188 262.777344 500.066406 268.171875 500.066406 C 284.039062 500.066406 299.144531 490.78125 305.808594 475.269531 L 346.628906 380.269531 C 346.628906 380.269531 379.796875 301.273438 443.945312 301.273438 " fill-opacity="1" fill-rule="nonzero"/>
  </g>
  <g fill="#00c2cb" fill-opacity="1" transform="matrix(1, 0, 0, 1, 13.797037, -225.959)">
    <g transform="translate(307.46015, 703.899945)">
      <g/>
    </g>
  </g>
  <g fill="#00c2cb" fill-opacity="1" transform="matrix(1, 0, 0, 1, 13.797037, -225.959)">
    <g transform="translate(487.743077, 703.899945)">
      <g/>
    </g>
  </g>
</svg>